<?xml version="1.0" encoding="utf-8"?>
<!-- Svg Vector Icons : http://www.onlinewebfonts.com/icon -->
<!DOCTYPE svg PUBLIC "-//W3C//DTD SVG 1.1//EN" "http://www.w3.org/Graphics/SVG/1.1/DTD/svg11.dtd">
<svg version="1.1" xmlns="http://www.w3.org/2000/svg" xmlns:xlink="http://www.w3.org/1999/xlink" x="0px" y="0px" viewBox="0 0 1000 1000" enable-background="new 0 0 1000 1000" xml:space="preserve">
<metadata> Svg Vector Icons : http://www.onlinewebfonts.com/icon </metadata>
<g><g transform="translate(0.000000,511.000000) scale(0.100000,-0.100000)"><path d="M8906.8,4418.4c-259.8-203.9-161.1-601.9,167.7-674.2c213.8-46,430.8,151.3,430.8,394.7c0,95.4-26.3,148-111.8,233.5c-95.4,95.4-134.8,111.8-259.8,111.8C9038.3,4484.2,8959.4,4461.2,8906.8,4418.4z M9202.8,4214.5c62.5-62.5,46.1-184.2-26.3-207.2c-78.9-26.3-164.4,32.9-164.4,111.8c0,62.5,62.5,134.8,115.1,134.8C9146.8,4254,9179.7,4237.5,9202.8,4214.5z"/><path d="M2102.1,4158.6c-111.8-115.1-118.4-194-26.3-312.4c82.2-105.2,282.9-121.7,368.4-26.3c88.8,98.7,72.4,286.1-29.6,365.1C2296.2,4277,2217.2,4270.4,2102.1,4158.6z"/><path d="M4884.5,3708c-1170.8-210.5-2220-983.4-2759.4-2039.1c-289.4-569-417.7-1111.6-417.7-1756.2c0-1088.6,384.8-2002.9,1164.3-2769.2c717-707.1,1657.6-1088.6,2687-1088.6c1065.6,0,2022.6,407.8,2769.2,1174.1c996.5,1022.8,1341.8,2555.4,884.7,3907.1c-457.1,1345.1-1605,2328.5-3009.3,2575.2C5848.1,3770.5,5239.7,3770.5,4884.5,3708z M5881,3497.5c167.7-19.7,371.6-49.3,450.6-69.1c128.2-32.9,141.4-46,115.1-95.4c-19.8-32.9-32.9-111.8-32.9-174.3c0-164.4,115.1-253.2,381.5-299.3l220.4-36.2l42.7-197.3c19.8-108.5,65.8-253.2,98.7-319c55.9-121.7,55.9-121.7-46-348.6c-194.1-417.7-171-749.9,62.5-924.2c52.6-39.5,128.3-138.1,164.4-220.4c39.5-82.2,125-187.5,187.5-236.8c108.5-82.2,141.4-88.8,427.5-88.8h309.2l52.6-98.7c39.5-69.1,55.9-177.6,52.6-361.8c0-230.2-13.2-296-121.7-532.8C8130.6-754.9,8124-794.4,8124-1097c0-282.8-9.9-342-82.2-476.9c-134.8-253.2-98.7-421,101.9-506.5c118.4-49.3,226.9-36.2,388.1,42.8c92.1,49.3,92.1,42.7-46.1-151.3c-269.7-381.5-759.7-828.8-1131.4-1022.8l-151.3-82.2l-52.6,78.9c-75.7,105.2-240.1,167.7-457.2,167.7c-102,0-256.5,29.6-351.9,65.8c-266.4,101.9-371.6,85.5-555.8-85.5c-55.9-52.6-151.3-92.1-279.6-111.8c-289.4-49.3-286.1-49.3-263.1,82.2c26.3,128.3-42.7,289.4-141.4,345.3c-118.4,62.5-296,39.5-381.5-49.3c-46.1-42.7-82.2-95.4-82.2-111.8c0-19.7-55.9-59.2-121.7-85.5c-157.9-65.8-269.7-171-325.6-302.6c-26.3-59.2-59.2-108.5-72.3-108.5c-55.9,0-562.4,309.2-786,483.5C2753.3-2484.9,2299.5-1814,2089-1090.4c-210.5,726.8-187.5,1417.5,72.4,2200.2l85.5,259.8l69.1-144.7c78.9-164.4,177.6-226.9,361.8-226.9c105.2,0,151.3-19.7,236.8-115.1c55.9-62.5,151.3-125,207.2-134.8l98.7-19.7l-75.6-138.1c-157.9-279.6-134.8-486.8,78.9-710.4c72.4-75.6,144.7-190.8,164.4-263.1C3421-505,3486.8-574.1,3763-787.8c98.7-75.6,118.4-111.8,118.4-213.8c0-65.8-23-194.1-52.6-286.1c-65.8-217.1-39.4-342.1,115.1-536.1c92.1-115.1,134.9-203.9,148-322.3c32.9-236.8,174.3-476.9,322.3-549.2c108.5-52.6,131.6-55.9,233.5-9.9c190.7,78.9,236.8,253.2,134.8,513c-72.3,177.6-39.4,279.6,118.4,378.2c134.8,85.5,197.3,171,197.3,266.4c0,29.6,42.7,105.2,98.7,164.4c52.6,62.5,108.5,154.6,118.4,203.9c32.9,134.9,62.5,161.2,309.2,253.2c286.1,108.5,328.9,171,328.9,476.9c0,210.5,9.9,246.7,115.1,397.9c157.9,230.2,154.6,358.5-9.9,522.9c-111.8,111.8-213.8,157.9-467,210.5c-49.3,9.9-138.1,92.1-223.6,200.6c-161.2,210.5-309.2,312.4-453.9,312.4c-69.1,0-131.6,32.9-213.8,118.4c-154.6,164.4-276.2,220.3-421,197.3c-65.8-9.9-213.8-29.6-332.2-49.3c-118.4-16.4-269.7-55.9-335.5-82.2c-184.2-78.9-213.8-69.1-233.5,78.9c-26.3,197.3-98.7,286.1-273,338.8l-154.6,42.8l92.1,72.3c125,98.7,167.7,92.1,292.7-42.7c121.7-128.3,223.7-144.7,345.3-62.5c95.4,69.1,174.3,253.2,148,355.2c-13.1,62.5,3.3,92.1,92.1,154.6c59.2,39.5,207.2,164.4,325.6,276.3l217.1,203.9l335.4,36.2c621.6,72.4,772.9,263.1,447.3,565.7l-88.8,82.2l144.7,19.7C5522.5,3530.4,5555.4,3530.4,5881,3497.5z M4996.3,3287c134.9-138.1,138.1-144.7,62.5-161.1c-42.7-9.9-177.6-29.6-305.8-39.5c-345.3-32.9-424.3-69.1-684.1-305.9c-131.6-121.7-299.3-266.4-368.4-322.3c-121.7-95.4-128.3-111.8-121.7-253.2c6.6-177.6-32.9-217.1-105.2-105.2c-29.6,42.7-111.8,95.4-180.9,118.4c-115.1,36.2-148,29.6-289.4-39.5c-259.8-128.3-374.9-378.2-256.5-546c36.2-52.6,92.1-75.6,207.2-82.2c154.6-9.9,154.6-9.9,174.3-141.4c23-180.9,75.6-263.1,197.3-312.4c88.8-39.5,131.6-36.2,322.3,26.3c121.7,39.5,273,72.4,338.8,72.4c65.8,0,171,23,236.8,49.3l118.4,49.3l164.4-151.3c125-118.4,207.2-164.4,338.7-194c151.3-32.9,190.7-59.2,328.9-230.2c174.3-217.1,243.4-266.4,434.1-299.3c174.3-26.3,312.4-111.8,312.4-184.2c0-32.9-52.6-138.1-118.4-233.5c-111.8-161.2-118.4-184.2-105.2-368.4c9.9-108.5,9.9-213.8,3.3-236.8c-6.6-19.7-108.5-69.1-223.6-108.5c-220.4-72.4-378.2-210.5-378.2-328.9c0-36.2-46.1-115.1-102-177.6c-55.9-65.8-115.1-167.7-131.6-233.5c-19.7-72.4-62.5-128.3-105.2-144.7c-108.6-42.8-210.5-171-250-312.4c-26.3-105.2-23-174.3,19.8-338.7c62.5-226.9,39.4-299.3-59.2-180.9c-62.5,78.9-111.8,223.6-144.7,440.7c-9.9,69-72.4,187.5-154.6,289.4l-134.8,171l55.9,233.5c98.7,427.6,65.8,519.6-259.8,776.2c-157.9,125-213.8,190.7-213.8,249.9c0,46.1-62.5,151.3-164.4,266.4c-98.7,111.8-164.4,220.4-164.4,266.4c0,92.1,72.4,243.4,144.7,302.6c32.9,26.3,52.6,95.4,52.6,171c0,141.4-65.8,203.9-256.5,243.4c-59.2,13.1-121.7,49.3-138.1,85.5c-55.9,98.7-184.2,167.7-365.1,190.7l-164.4,19.7l-62.5,180.9c-36.2,98.7-62.5,200.6-65.8,223.6c0,82.2,276.2,453.9,555.8,740c279.6,289.4,644.6,559.1,980.1,726.8c207.2,102,723.5,282.8,815.6,282.8C4825.3,3431.8,4917.4,3366,4996.3,3287z M7120.9,3148.9c1118.2-532.8,1884.5-1624.7,2022.6-2881c59.2-526.2-26.3-1190.6-184.2-1463.5c-194.1-332.2-536.1-667.6-684.1-667.6c-72.3,0-65.8,49.3,23,226.9c59.2,125,72.4,210.5,75.6,483.4c6.6,292.7,16.4,358.5,108.6,562.4c194,447.3,210.5,753.1,49.3,1082c-108.6,230.2-236.8,292.7-493.3,246.7c-256.6-49.3-378.2,6.6-483.5,217.1c-46.1,85.5-134.9,203.9-200.6,263.1c-157.9,138.1-161.1,286.1-3.3,634.7c131.6,292.7,138.1,351.9,52.6,519.6c-32.9,65.8-78.9,210.5-101.9,319c-23,108.5-55.9,223.6-72.4,256.5c-42.8,82.2-223.6,154.6-381.5,154.6c-161.2,0-223.7,55.9-148,138.1C6762.4,3313.4,6801.9,3303.5,7120.9,3148.9z M4940.4-3149.2c-88.8-151.3-72.4-250,46-279.6c42.7-13.2,226.9-16.4,404.5-6.6c335.5,13.1,348.6,16.4,647.9,240.1c29.6,19.7,98.7,9.9,217.1-32.9c95.4-32.9,286.1-72.4,421-82.2c197.3-13.2,246.7-26.3,256.5-72.4c23-111.8-861.7-322.3-1358.3-322.3c-269.7,0-782.7,72.4-1026.1,148c-171,49.3-171,49.3-134.8,151.3c26.3,75.7,75.6,118.4,207.2,177.6c95.4,42.7,194,111.8,217.1,154.6c52.6,98.7,102,131.6,144.7,88.8C5006.2-3007.8,4989.8-3060.4,4940.4-3149.2z"/><path d="M664.9,3481.1c-203.9-88.8-361.8-243.4-463.7-450.6C-29,2570.1,145.3,2034,605.7,1793.9c138.1-72.4,210.5-88.8,414.4-85.5c210.5,0,273,13.1,424.2,95.4c345.3,190.7,519.7,503.2,490.1,884.7c-26.3,332.2-220.4,621.6-506.5,759.7C1256.9,3533.7,819.5,3550.2,664.9,3481.1z M1306.2,3218c516.3-240.1,496.6-993.2-29.6-1216.9c-371.6-151.3-812.3,72.4-911,460.4C260.4,2875.9,586,3287,1020.1,3296.9C1082.6,3296.9,1214.1,3264,1306.2,3218z"/><path d="M9488.9,2658.9c-46.1-42.7-82.2-118.4-82.2-164.4c0-108.5,134.8-246.7,240.1-246.7c128.3,0,253.2,118.4,253.2,243.4C9900,2714.8,9643.5,2816.7,9488.9,2658.9z"/><path d="M1036.6,366.5C875.4,281,845.8,139.6,957.6-1.8c85.5-108.5,259.8-118.4,358.5-19.7c98.7,98.7,88.8,273-19.8,358.5C1197.7,412.6,1135.2,422.5,1036.6,366.5z"/><path d="M9202.8-2507.9c-200.6-108.6-253.3-404.6-98.7-572.3c171-194.1,499.9-157.9,615,65.8C9890.1-2685.5,9528.4-2330.3,9202.8-2507.9z M9488.9-2833.5c0-78.9-16.4-101.9-78.9-108.5c-105.2-16.4-177.6,75.6-131.6,164.4c23,42.7,62.5,59.2,121.7,52.6C9475.7-2731.6,9488.9-2751.3,9488.9-2833.5z"/><path d="M2220.5-2734.8c-46.1-42.7-82.2-118.4-82.2-164.4c0-115.1,138.1-246.7,256.5-246.7c55.9,0,121.7,29.6,164.4,75.6C2779.6-2833.5,2447.5-2504.6,2220.5-2734.8z"/><path d="M2105.4-3369.6c-164.4-82.2-250-266.4-200.6-434.1c69.1-233.5,345.3-335.5,562.4-207.2c111.8,65.8,164.4,171,164.4,332.2c0,154.6-72.4,263.1-217.1,322.3C2273.2-3297.2,2243.6-3297.2,2105.4-3369.6z M2368.5-3622.8c46-55.9,16.4-167.7-52.6-194.1c-72.3-26.3-177.6,36.2-177.6,105.2C2138.3-3586.7,2289.6-3527.4,2368.5-3622.8z"/><path d="M7726.1-3767.5c-171-138.1-55.9-430.8,171-430.8c131.6,0,226.9,105.3,226.9,246.7C8124-3737.9,7893.8-3632.7,7726.1-3767.5z"/><path d="M3105.2-3810.3c-72.3-32.9-144.7-154.6-144.7-236.8c0-23,29.6-82.2,69.1-131.6c78.9-98.7,236.8-115.1,351.9-32.9c108.5,75.7,101.9,282.9-13.2,371.7C3273-3764.2,3210.5-3757.6,3105.2-3810.3z"/><path d="M9021.9-3803.7c-233.5-95.4-148-460.4,108.5-460.4c226.9,0,325.6,249.9,161.2,411.1C9209.3-3767.5,9143.6-3754.4,9021.9-3803.7z"/></g></g>
</svg>